<mxfile host="app.diagrams.net" modified="2024-07-30T22:09:09.305Z" agent="Mozilla/5.0 (Windows NT 10.0; Win64; x64) AppleWebKit/537.36 (KHTML, like Gecko) Chrome/127.0.0.0 Safari/537.36 Edg/127.0.0.0" version="24.7.1" etag="7gVSvrU4Rf8Yd23CG7aw" type="github">
  <diagram name="Page-1" id="uszy2_NjLDL6cTKRVGN8">
    <mxGraphModel>
      <root>
        <mxCell id="0" />
        <mxCell id="1" parent="0" />
      </root>
    </mxGraphModel>
  </diagram>
</mxfile>
